<svg width="31" height="28" viewBox="0 0 31 28" fill="none" xmlns="http://www.w3.org/2000/svg">
<path d="M29.8889 9.66667H1M18.3333 21.9444L21.9444 18.3333L18.3333 14.7222M12.5556 14.7222L8.94445 18.3333L12.5556 21.9444M1 7.93334L1 20.0667C1 22.4936 1 23.707 1.47231 24.634C1.88776 25.4493 2.55067 26.1122 3.36604 26.5277C4.29299 27 5.50644 27 7.93333 27H22.9556C25.3825 27 26.5959 27 27.5229 26.5277C28.3382 26.1122 29.0011 25.4493 29.4166 24.634C29.8889 23.707 29.8889 22.4936 29.8889 20.0667V7.93334C29.8889 5.50644 29.8889 4.29299 29.4166 3.36604C29.0011 2.55067 28.3382 1.88776 27.5229 1.47231C26.5959 1 25.3825 1 22.9556 1L7.93334 1C5.50644 1 4.29299 1 3.36604 1.4723C2.55067 1.88776 1.88776 2.55067 1.47231 3.36604C1 4.29299 1 5.50644 1 7.93334Z" stroke="white" stroke-width="2" stroke-linecap="round" stroke-linejoin="round"/>
</svg>
