<svg width="28" height="28" viewBox="0 0 28 28" fill="none" xmlns="http://www.w3.org/2000/svg">
<path d="M10.2462 12.7136L15.2363 17.7036M8.89214 25.5958C7.08669 27.4012 3.64179 26.9498 1 26.9498C2.35405 24.3081 0.548605 20.8631 2.35405 19.0577C4.15949 17.2522 7.08669 17.2522 8.89214 19.0577C10.6976 20.8631 10.6976 23.7903 8.89214 25.5958ZM14.1054 18.9249L26.1745 5.89024C27.2375 4.74217 27.2033 2.95924 26.0969 1.85287C24.9905 0.746504 23.2076 0.712228 22.0595 1.77526L9.02487 13.8444C8.3513 14.4681 8.01451 14.7799 7.81809 15.1125C7.34708 15.91 7.32813 16.8959 7.76814 17.711C7.95163 18.0508 8.27619 18.3754 8.92529 19.0245C9.57439 19.6736 9.89894 19.9981 10.2388 20.1816C11.0538 20.6216 12.0398 20.6027 12.8373 20.1317C13.1699 19.9353 13.4817 19.5985 14.1054 18.9249Z" stroke="white" stroke-width="2" stroke-linecap="round" stroke-linejoin="round"/>
</svg>
