<svg width="29" height="27" viewBox="0 0 29 27" fill="none" xmlns="http://www.w3.org/2000/svg">
<path fill-rule="evenodd" clip-rule="evenodd" d="M21.5848 17.908C22.004 17.4889 22.6836 17.4889 23.1027 17.908C23.5218 18.3271 23.5218 19.0067 23.1027 19.4258L20.6668 21.8618C20.634 21.8945 20.5882 21.9412 20.5343 21.9808C20.4916 22.0121 20.446 22.0396 20.3978 22.0617C20.3372 22.0895 20.2741 22.1061 20.2296 22.1188L19.0601 22.4529C18.9182 22.4934 18.7653 22.4541 18.6609 22.3497C18.5566 22.2454 18.5173 22.0925 18.5578 21.9506L18.8918 20.7811C18.9046 20.7366 18.9212 20.6735 18.949 20.6129L18.9863 20.5422C18.9997 20.5195 19.0143 20.4969 19.0299 20.4756L19.0918 20.4018C19.1125 20.3797 19.1326 20.3602 19.1489 20.3439L21.5848 17.908ZM22.5283 18.4824C22.4265 18.3806 22.2611 18.3807 22.1593 18.4824L19.7234 20.9183C19.7129 20.9289 19.705 20.9375 19.698 20.9445C19.6936 20.949 19.6896 20.952 19.6869 20.9548C19.6858 20.9585 19.6847 20.9632 19.6829 20.9691C19.6801 20.9786 19.6775 20.9897 19.6734 21.004L19.5393 21.4706L20.0067 21.3373C20.021 21.3332 20.0321 21.3305 20.0416 21.3278C20.0472 21.3261 20.0515 21.3241 20.0551 21.323C20.0578 21.3203 20.0617 21.3171 20.0662 21.3127C20.0732 21.3057 20.0818 21.2978 20.0923 21.2873L22.5283 18.8514C22.63 18.7496 22.6301 18.5842 22.5283 18.4824Z" fill="white"/>
<path d="M14.0843 12.1498C14.2783 12.1499 14.4486 12.2139 14.5786 12.3498C14.7101 12.4803 14.7706 12.6503 14.7706 12.8425V17.6033C14.7706 18.1822 14.6219 18.7022 14.3231 19.1584C14.0319 19.6135 13.625 19.9698 13.1075 20.2264L13.106 20.2272C12.5874 20.4772 11.9972 20.6002 11.3397 20.6002C10.6624 20.6001 10.0555 20.4776 9.5235 20.228L9.52191 20.2272C8.99157 19.9713 8.57111 19.6165 8.26587 19.1624L8.26508 19.1608C7.96548 18.7042 7.81677 18.183 7.81677 17.6033V12.8425C7.81679 12.6468 7.88306 12.4755 8.02307 12.3458C8.15696 12.215 8.32454 12.1498 8.51422 12.1498C8.70633 12.1499 8.87503 12.2127 9.00458 12.3458L9.05377 12.3966C9.16021 12.5188 9.21086 12.6713 9.21088 12.8425V17.6033C9.21088 17.9402 9.29858 18.2344 9.47113 18.4911C9.65131 18.7426 9.89705 18.9448 10.2146 19.0966L10.3384 19.1473C10.6338 19.2592 10.9668 19.3163 11.3397 19.3163C11.7003 19.3163 12.018 19.2599 12.295 19.1489L12.4109 19.0981C12.7231 18.9463 12.9597 18.7434 13.1266 18.4919C13.2992 18.2351 13.3868 17.9402 13.3868 17.6033V12.8425C13.3869 12.6468 13.4531 12.4755 13.5931 12.3458C13.727 12.215 13.8946 12.1498 14.0843 12.1498Z" fill="white"/>
<path d="M17.1946 12.1498C17.3869 12.1498 17.5562 12.2126 17.6858 12.3458L17.735 12.3966C17.8414 12.5188 17.8921 12.6713 17.8921 12.8425V19.744C17.8921 19.9333 17.8249 20.0991 17.6929 20.232L17.6937 20.2328C17.5631 20.3716 17.3908 20.4367 17.1946 20.4367C17.0032 20.4366 16.8348 20.3702 16.7003 20.2368C16.5657 20.1032 16.498 19.9352 16.498 19.744V12.8425C16.498 12.6468 16.5643 12.4755 16.7043 12.3458C16.8381 12.2151 17.0051 12.1499 17.1946 12.1498Z" fill="white"/>
<path fill-rule="evenodd" clip-rule="evenodd" d="M21.5206 0.125C22.6446 0.125001 23.5375 0.124267 24.2556 0.182923C24.983 0.242381 25.6038 0.367262 26.1718 0.656617C27.0889 1.12399 27.8349 1.86992 28.3022 2.78705C28.5916 3.3551 28.7157 3.97571 28.7751 4.70325C28.8338 5.42141 28.8331 6.31337 28.8331 7.4375V18.8125C28.8331 19.9366 28.8338 20.8286 28.7751 21.5468C28.7157 22.2743 28.5916 22.8949 28.3022 23.463C27.8349 24.3801 27.0889 25.126 26.1718 25.5934C25.6038 25.8827 24.983 26.0076 24.2556 26.0671C23.5375 26.1257 22.6446 26.125 21.5206 26.125H7.4375C6.31352 26.125 5.42135 26.1257 4.70325 26.0671C3.97573 26.0076 3.35509 25.8828 2.78705 25.5934C1.86986 25.126 1.12396 24.3802 0.656617 23.463C0.367207 22.8949 0.242369 22.2743 0.182923 21.5468C0.124259 20.8286 0.125 19.9366 0.125 18.8125V7.4375C0.125 6.3134 0.124259 5.42141 0.182923 4.70325C0.242369 3.97566 0.367208 3.35513 0.656617 2.78705C1.12396 1.86983 1.86986 1.12401 2.78705 0.656617C3.35509 0.367204 3.97573 0.242382 4.70325 0.182923C5.42135 0.124262 6.31351 0.125 7.4375 0.125H21.5206ZM1.75 18.8125C1.75 19.9633 1.75038 20.7776 1.80237 21.4142C1.85361 22.0414 1.95061 22.425 2.10388 22.7258C2.41541 23.3372 2.91286 23.8345 3.52417 24.1461C3.82501 24.2994 4.20873 24.3964 4.83575 24.4476C5.47232 24.4996 6.28685 24.5 7.4375 24.5H21.5206C22.6714 24.5 23.4865 24.4996 24.1231 24.4476C24.75 24.3964 25.1331 24.2993 25.4339 24.1461C26.0453 23.8346 26.5426 23.3372 26.8542 22.7258C27.0075 22.425 27.1045 22.0414 27.1557 21.4142C27.2077 20.7776 27.2081 19.9633 27.2081 18.8125V9.875H1.75V18.8125ZM7.4375 1.75C6.28684 1.75 5.47232 1.75038 4.83575 1.80237C4.20873 1.85362 3.82501 1.9506 3.52417 2.10388C2.91286 2.41546 2.41541 2.91283 2.10388 3.52417C1.95061 3.82503 1.85361 4.20865 1.80237 4.83575C1.75038 5.47237 1.75 6.28671 1.75 7.4375V8.25H27.2081V7.4375C27.2081 6.28669 27.2077 5.47238 27.1557 4.83575C27.1045 4.20858 27.0075 3.82504 26.8542 3.52417C26.5426 2.91281 26.0453 2.41541 25.4339 2.10388C25.1331 1.95067 24.75 1.8536 24.1231 1.80237C23.4865 1.75037 22.6714 1.75 21.5206 1.75H7.4375Z" fill="white"/>
<path fill-rule="evenodd" clip-rule="evenodd" d="M21.5848 17.908C22.004 17.4889 22.6836 17.4889 23.1027 17.908C23.5218 18.3271 23.5218 19.0067 23.1027 19.4258L20.6668 21.8618C20.634 21.8945 20.5882 21.9412 20.5343 21.9808C20.4916 22.0121 20.446 22.0396 20.3978 22.0617C20.3372 22.0895 20.2741 22.1061 20.2296 22.1188L19.0601 22.4529C18.9182 22.4934 18.7653 22.4541 18.6609 22.3497C18.5566 22.2454 18.5173 22.0925 18.5578 21.9506L18.8918 20.7811C18.9046 20.7366 18.9212 20.6735 18.949 20.6129L18.9863 20.5422C18.9997 20.5195 19.0143 20.4969 19.0299 20.4756L19.0918 20.4018C19.1125 20.3797 19.1326 20.3602 19.1489 20.3439L21.5848 17.908ZM22.5283 18.4824C22.4265 18.3806 22.2611 18.3807 22.1593 18.4824L19.7234 20.9183C19.7129 20.9289 19.705 20.9375 19.698 20.9445C19.6936 20.949 19.6896 20.952 19.6869 20.9548C19.6858 20.9585 19.6847 20.9632 19.6829 20.9691C19.6801 20.9786 19.6775 20.9897 19.6734 21.004L19.5393 21.4706L20.0067 21.3373C20.021 21.3332 20.0321 21.3305 20.0416 21.3278C20.0472 21.3261 20.0515 21.3241 20.0551 21.323C20.0578 21.3203 20.0617 21.3171 20.0662 21.3127C20.0732 21.3057 20.0818 21.2978 20.0923 21.2873L22.5283 18.8514C22.63 18.7496 22.6301 18.5842 22.5283 18.4824Z" stroke="white" stroke-width="0.25"/>
<path d="M14.0843 12.1498C14.2783 12.1499 14.4486 12.2139 14.5786 12.3498C14.7101 12.4803 14.7706 12.6503 14.7706 12.8425V17.6033C14.7706 18.1822 14.6219 18.7022 14.3231 19.1584C14.0319 19.6135 13.625 19.9698 13.1075 20.2264L13.106 20.2272C12.5874 20.4772 11.9972 20.6002 11.3397 20.6002C10.6624 20.6001 10.0555 20.4776 9.5235 20.228L9.52191 20.2272C8.99157 19.9713 8.57111 19.6165 8.26587 19.1624L8.26508 19.1608C7.96548 18.7042 7.81677 18.183 7.81677 17.6033V12.8425C7.81679 12.6468 7.88306 12.4755 8.02307 12.3458C8.15696 12.215 8.32454 12.1498 8.51422 12.1498C8.70633 12.1499 8.87503 12.2127 9.00458 12.3458L9.05377 12.3966C9.16021 12.5188 9.21086 12.6713 9.21088 12.8425V17.6033C9.21088 17.9402 9.29858 18.2344 9.47113 18.4911C9.65131 18.7426 9.89705 18.9448 10.2146 19.0966L10.3384 19.1473C10.6338 19.2592 10.9668 19.3163 11.3397 19.3163C11.7003 19.3163 12.018 19.2599 12.295 19.1489L12.4109 19.0981C12.7231 18.9463 12.9597 18.7434 13.1266 18.4919C13.2992 18.2351 13.3868 17.9402 13.3868 17.6033V12.8425C13.3869 12.6468 13.4531 12.4755 13.5931 12.3458C13.727 12.215 13.8946 12.1498 14.0843 12.1498Z" stroke="white" stroke-width="0.25"/>
<path d="M17.1946 12.1498C17.3869 12.1498 17.5562 12.2126 17.6858 12.3458L17.735 12.3966C17.8414 12.5188 17.8921 12.6713 17.8921 12.8425V19.744C17.8921 19.9333 17.8249 20.0991 17.6929 20.232L17.6937 20.2328C17.5631 20.3716 17.3908 20.4367 17.1946 20.4367C17.0032 20.4366 16.8348 20.3702 16.7003 20.2368C16.5657 20.1032 16.498 19.9352 16.498 19.744V12.8425C16.498 12.6468 16.5643 12.4755 16.7043 12.3458C16.8381 12.2151 17.0051 12.1499 17.1946 12.1498Z" stroke="white" stroke-width="0.25"/>
<path fill-rule="evenodd" clip-rule="evenodd" d="M21.5206 0.125C22.6446 0.125001 23.5375 0.124267 24.2556 0.182923C24.983 0.242381 25.6038 0.367262 26.1718 0.656617C27.0889 1.12399 27.8349 1.86992 28.3022 2.78705C28.5916 3.3551 28.7157 3.97571 28.7751 4.70325C28.8338 5.42141 28.8331 6.31337 28.8331 7.4375V18.8125C28.8331 19.9366 28.8338 20.8286 28.7751 21.5468C28.7157 22.2743 28.5916 22.8949 28.3022 23.463C27.8349 24.3801 27.0889 25.126 26.1718 25.5934C25.6038 25.8827 24.983 26.0076 24.2556 26.0671C23.5375 26.1257 22.6446 26.125 21.5206 26.125H7.4375C6.31352 26.125 5.42135 26.1257 4.70325 26.0671C3.97573 26.0076 3.35509 25.8828 2.78705 25.5934C1.86986 25.126 1.12396 24.3802 0.656617 23.463C0.367207 22.8949 0.242369 22.2743 0.182923 21.5468C0.124259 20.8286 0.125 19.9366 0.125 18.8125V7.4375C0.125 6.3134 0.124259 5.42141 0.182923 4.70325C0.242369 3.97566 0.367208 3.35513 0.656617 2.78705C1.12396 1.86983 1.86986 1.12401 2.78705 0.656617C3.35509 0.367204 3.97573 0.242382 4.70325 0.182923C5.42135 0.124262 6.31351 0.125 7.4375 0.125H21.5206ZM1.75 18.8125C1.75 19.9633 1.75038 20.7776 1.80237 21.4142C1.85361 22.0414 1.95061 22.425 2.10388 22.7258C2.41541 23.3372 2.91286 23.8345 3.52417 24.1461C3.82501 24.2994 4.20873 24.3964 4.83575 24.4476C5.47232 24.4996 6.28685 24.5 7.4375 24.5H21.5206C22.6714 24.5 23.4865 24.4996 24.1231 24.4476C24.75 24.3964 25.1331 24.2993 25.4339 24.1461C26.0453 23.8346 26.5426 23.3372 26.8542 22.7258C27.0075 22.425 27.1045 22.0414 27.1557 21.4142C27.2077 20.7776 27.2081 19.9633 27.2081 18.8125V9.875H1.75V18.8125ZM7.4375 1.75C6.28684 1.75 5.47232 1.75038 4.83575 1.80237C4.20873 1.85362 3.82501 1.9506 3.52417 2.10388C2.91286 2.41546 2.41541 2.91283 2.10388 3.52417C1.95061 3.82503 1.85361 4.20865 1.80237 4.83575C1.75038 5.47237 1.75 6.28671 1.75 7.4375V8.25H27.2081V7.4375C27.2081 6.28669 27.2077 5.47238 27.1557 4.83575C27.1045 4.20858 27.0075 3.82504 26.8542 3.52417C26.5426 2.91281 26.0453 2.41541 25.4339 2.10388C25.1331 1.95067 24.75 1.8536 24.1231 1.80237C23.4865 1.75037 22.6714 1.75 21.5206 1.75H7.4375Z" stroke="white" stroke-width="0.25"/>
</svg>
