<svg width="28" height="28" viewBox="0 0 28 28" fill="none" xmlns="http://www.w3.org/2000/svg">
<path d="M6.2 17.4667C7.88696 15.6985 10.1773 14.6118 12.7 14.6118C15.2227 14.6118 17.513 15.6985 19.2 17.4667M27 27L20.7167 20.7167M15.95 8.5451C15.95 10.3189 14.4949 11.7569 12.7 11.7569C10.9051 11.7569 9.45 10.3189 9.45 8.5451C9.45 6.77129 10.9051 5.33333 12.7 5.33333C14.4949 5.33333 15.95 6.77129 15.95 8.5451ZM24.1111 12.5556C24.1111 18.9375 18.9375 24.1111 12.5556 24.1111C6.1736 24.1111 1 18.9375 1 12.5556C1 6.1736 6.1736 1 12.5556 1C18.9375 1 24.1111 6.1736 24.1111 12.5556Z" stroke="white" stroke-width="2" stroke-linecap="round" stroke-linejoin="round"/>
</svg>
