<svg width="35" height="28" viewBox="0 0 35 28" fill="none" xmlns="http://www.w3.org/2000/svg">
<path d="M27.4931 23.8499C26.6888 23.476 26.035 22.8794 25.6252 22.1456C25.1594 21.3113 25.1594 20.2192 25.1594 18.035V9.715C25.1594 7.5308 25.1594 6.43869 25.6252 5.60444C26.035 4.8706 26.6888 4.27398 27.4931 3.90007M28.4741 13.875C28.4741 15.3109 29.5342 16.475 31.1079 16.475C32.6816 16.475 33.7417 15.3109 33.7417 13.875C33.7417 12.4391 32.6816 11.275 31.1079 11.275C29.5342 11.275 28.4741 12.4391 28.4741 13.875ZM28.4741 13.875L21.4993 13.8751M21.4993 13.8751C21.4993 8.90457 17.171 4.87513 11.8317 4.87513M21.4993 13.8751C21.4993 18.8457 17.171 22.8751 11.8317 22.8751M21.4993 13.8751H18.599M11.8317 22.8751C6.49238 22.8751 2.16402 18.8457 2.16402 13.8751M11.8317 22.8751V20.1751M11.8317 22.8751V24.0751M2.16402 13.8751C2.16402 8.90457 6.49238 4.87513 11.8317 4.87513M2.16402 13.8751H5.06432M2.16402 13.8751H0.875M11.8317 4.87513V7.57513M11.8317 4.87513V3.67513M7.52396 18.3382C7.91604 17.4783 8.83144 16.8751 9.89815 16.8751H13.7652C14.8319 16.8751 15.7473 17.4783 16.1394 18.3382M28.4741 24.275C28.4741 25.7109 29.5342 26.875 31.1079 26.875C32.6816 26.875 33.7417 25.7109 33.7417 24.275C33.7417 22.8391 32.6816 21.675 31.1079 21.675C29.5342 21.675 28.4741 22.8391 28.4741 24.275ZM28.4741 3.475C28.4741 4.91094 29.5342 6.075 31.1079 6.075C32.6816 6.075 33.7417 4.91094 33.7417 3.475C33.7417 2.03906 32.6816 0.875 31.1079 0.875C29.5342 0.875 28.4741 2.03906 28.4741 3.475ZM14.4097 12.3751C14.4097 13.7006 13.2555 14.7751 11.8317 14.7751C10.4079 14.7751 9.25364 13.7006 9.25364 12.3751C9.25364 11.0496 10.4079 9.97513 11.8317 9.97513C13.2555 9.97513 14.4097 11.0496 14.4097 12.3751Z" stroke="white" stroke-width="1.75" stroke-linecap="round" stroke-linejoin="round"/>
</svg>
